<?xml version="1.0" encoding="UTF-8"?> <svg xmlns="http://www.w3.org/2000/svg" id="Capa_1" data-name="Capa 1" viewBox="0 0 678.01 383.46"><defs><style>.cls-1{fill:#536273;}.cls-2{fill:#dc0814;}</style></defs><title>Imagotipo_Vertical_CMYK</title><path class="cls-1" d="M102.59,488.46c11.86,0,17.48-5.93,17.48-12.85,0-15.88-25.64-9.88-25.64-19.09,0-3.27,2.72-5.87,9.39-5.87a24,24,0,0,1,11.92,3.4l2.53-6.24c-3.77-2.47-9.21-3.83-14.4-3.83C92,444,86.46,449.9,86.46,456.89c0,16.06,25.7,9.95,25.7,19.28,0,3.21-2.84,5.62-9.58,5.62A24,24,0,0,1,88.31,477l-2.78,6.24c3.58,3.09,10.32,5.19,17.05,5.19" transform="translate(-75.4 -105)"></path><path class="cls-1" d="M145.28,452.62l8.16,18.9H137.19Zm-3.9-8-19.46,43.25h8.28l4.26-10H156.1l4.32,10h8.4L149.3,444.59h-7.91Z" transform="translate(-75.4 -105)"></path><polygon class="cls-1" points="98.93 339.59 98.93 382.84 129.57 382.84 129.57 376.05 106.96 376.05 106.96 339.59 98.93 339.59"></polygon><polygon class="cls-1" points="135.94 339.59 135.94 382.84 168.37 382.84 168.37 376.11 143.97 376.11 143.97 364.18 164.85 364.18 164.85 357.57 143.97 357.57 143.97 346.33 167.51 346.33 167.51 339.59 135.94 339.59"></polygon><path class="cls-1" d="M266.14,488.46c11.86,0,17.48-5.93,17.48-12.85,0-15.88-25.64-9.88-25.64-19.09,0-3.27,2.72-5.87,9.39-5.87A24,24,0,0,1,279.3,454l2.53-6.24c-3.77-2.47-9.21-3.83-14.4-3.83C255.57,444,250,449.9,250,456.89c0,16.06,25.7,9.95,25.7,19.28,0,3.21-2.84,5.62-9.58,5.62A24,24,0,0,1,251.86,477l-2.78,6.24c3.58,3.09,10.32,5.19,17.05,5.19" transform="translate(-75.4 -105)"></path><rect class="cls-1" x="216.2" y="339.59" width="8.03" height="43.25"></rect><path class="cls-1" d="M328.54,452.62l8.16,18.9H320.45Zm-3.89-8-19.47,43.25h8.28l4.26-10h21.63l4.32,10h8.4l-19.52-43.25h-7.91Z" transform="translate(-75.4 -105)"></path><polygon class="cls-1" points="312.64 339.59 312.64 368.88 288.8 339.59 282.19 339.59 282.19 382.84 290.15 382.84 290.15 353.56 314 382.84 320.61 382.84 320.61 339.59 312.64 339.59"></polygon><path class="cls-1" d="M443,466.22a15.2,15.2,0,1,1-15.2-15.2,14.74,14.74,0,0,1,15.2,15.2m8.1,0c0-12.85-9.88-22.24-23.29-22.24s-23.29,9.45-23.29,22.24,9.88,22.24,23.29,22.24,23.29-9.39,23.29-22.24" transform="translate(-75.4 -105)"></path><path class="cls-1" d="M473.06,488.46c11.86,0,17.48-5.93,17.48-12.85,0-15.88-25.64-9.88-25.64-19.09,0-3.27,2.72-5.87,9.39-5.87a24,24,0,0,1,11.92,3.4l2.53-6.24c-3.77-2.47-9.21-3.83-14.4-3.83-11.86,0-17.42,5.93-17.42,12.92,0,16.06,25.7,9.95,25.7,19.28,0,3.21-2.84,5.62-9.58,5.62A24,24,0,0,1,458.79,477L456,483.27c3.58,3.09,10.32,5.19,17.05,5.19" transform="translate(-75.4 -105)"></path><path class="cls-1" d="M534.5,488.46c11.85,0,17.47-5.93,17.47-12.84,0-15.87-25.62-9.88-25.62-19.08,0-3.27,2.72-5.87,9.38-5.87a24,24,0,0,1,11.92,3.4l2.53-6.24c-3.77-2.47-9.2-3.83-14.39-3.83-11.86,0-17.41,5.93-17.41,12.91,0,16.05,25.69,9.94,25.69,19.27,0,3.21-2.84,5.62-9.57,5.62A23.92,23.92,0,0,1,520.24,477l-2.78,6.24c3.58,3.09,10.31,5.19,17,5.19" transform="translate(-75.4 -105)"></path><path class="cls-1" d="M595.32,466.23A15.19,15.19,0,1,1,580.14,451a14.73,14.73,0,0,1,15.19,15.19m8.09,0c0-12.84-9.88-22.23-23.28-22.23s-23.28,9.45-23.28,22.23,9.88,22.23,23.28,22.23,23.28-9.39,23.28-22.23" transform="translate(-75.4 -105)"></path><path class="cls-1" d="M631.94,488.46c7.1,0,13.15-2.53,17.17-7.23l-5.19-4.94a15,15,0,0,1-11.55,5.13c-9,0-15.44-6.3-15.44-15.19S623.42,451,632.37,451a15.16,15.16,0,0,1,11.55,5.06l5.19-4.88C645.09,446.53,639,444,632,444c-13.27,0-23.15,9.32-23.15,22.23s9.88,22.23,23.1,22.23" transform="translate(-75.4 -105)"></path><rect class="cls-1" x="581.43" y="339.62" width="8.03" height="43.22"></rect><path class="cls-1" d="M693.75,452.65l8.15,18.9H685.66Zm-3.89-8-19.45,43.22h8.27l4.26-10h21.61l4.32,10h8.4l-19.52-43.22h-7.9Z" transform="translate(-75.4 -105)"></path><polygon class="cls-1" points="647.38 339.62 647.38 382.85 678.01 382.85 678.01 376.05 655.4 376.05 655.4 339.62 647.38 339.62"></polygon><path class="cls-2" d="M323.53,372.34c0,6.09-4.57,9-13.21,9H289.24v-18h21.08c8.64,0,13.21,2.92,13.21,9m-4.32-35.05c0,5.72-4.32,8.64-12.7,8.64H289.24V328.78h17.27c8.38,0,12.7,2.92,12.7,8.5m25.4-3.43c0-13.72-11.43-23.24-34.8-23.24H264.35v88.89h48c23.88,0,36.58-9,36.58-24.38,0-10.8-6.22-18.41-16.26-22,7.62-3.94,11.94-10.8,11.94-19.3" transform="translate(-75.4 -105)"></path><path class="cls-2" d="M434.77,355.07c0,15.37-10.54,25.4-24,25.4s-24-10-24-25.4,10.54-25.4,24-25.4,24,10,24,25.4m25.4,0c0-26.67-21-46.23-49.4-46.23s-49.4,19.56-49.4,46.23,21,46.23,49.4,46.23,49.4-19.56,49.4-46.23" transform="translate(-75.4 -105)"></path><path class="cls-2" d="M508.56,401.29c26.42,0,39.37-13.21,39.37-28.7,0-32.76-50.42-22.6-50.42-36.19,0-4.45,3.81-8,14.35-8,7.75,0,16.13,2.29,24.64,6.86l7.75-18.67c-8.76-5.08-20.7-7.75-32.26-7.75-26.41,0-39.36,13-39.36,28.83,0,33,50.54,22.73,50.54,36.83,0,4.32-4.06,7.24-14.48,7.24A56.06,56.06,0,0,1,479.35,373l-8.26,18.54c8.39,5.84,22.86,9.78,37.46,9.78" transform="translate(-75.4 -105)"></path><path class="cls-2" d="M607.74,401.29c16.38,0,29.59-6,38.22-16.76l-16-14.48c-5.59,6.73-12.45,10.41-21,10.41-14.6,0-24.76-10.16-24.76-25.4s10.16-25.4,24.76-25.4c8.51,0,15.37,3.68,21,10.41l16-14.48c-8.63-10.8-21.84-16.77-38.22-16.77-28.19,0-48.89,19.18-48.89,46.23s20.7,46.23,48.89,46.23" transform="translate(-75.4 -105)"></path><path class="cls-2" d="M728,355.07c0,15.37-10.54,25.4-24,25.4s-24-10-24-25.4,10.54-25.4,24-25.4,24,10,24,25.4m25.4,0c0-26.67-21-46.23-49.4-46.23s-49.4,19.56-49.4,46.23,21,46.23,49.4,46.23,49.4-19.56,49.4-46.23" transform="translate(-75.4 -105)"></path><path class="cls-2" d="M330.66,221.7c0,15.37-10.17,24.39-25.28,24.39H289.5V197.31h15.88c15.11,0,25.28,9,25.28,24.39m25.41,0c0-27.31-20.2-44.47-49.67-44.47H264.35v88.93H306.4c29.47,0,49.67-17.15,49.67-44.47" transform="translate(-75.4 -105)"></path><path class="cls-2" d="M444,221.7c0,15.37-10.54,25.41-24,25.41s-24-10-24-25.41,10.54-25.41,24-25.41,24,10,24,25.41m25.41,0c0-26.68-21-46.25-49.42-46.25S370.54,195,370.54,221.7s21,46.24,49.42,46.24,49.42-19.56,49.42-46.24" transform="translate(-75.4 -105)"></path><polygon class="cls-2" points="468.41 72.23 468.41 119.62 429.15 72.23 408.44 72.23 408.44 161.16 433.09 161.16 433.09 113.78 472.34 161.16 493.05 161.16 493.05 72.23 468.41 72.23"></polygon><rect class="cls-2" x="11.11" y="205.63" width="44.46" height="88.92"></rect><path class="cls-1" d="M192.1,160.57a27.79,27.79,0,1,0-27.79-27.79,27.79,27.79,0,0,0,27.79,27.79" transform="translate(-75.4 -105)"></path><polygon class="cls-1" points="0 205.76 31.44 237.2 100.03 168.6 100.03 294.54 144.5 294.54 144.5 124.14 144.5 61.26 0 205.76"></polygon><path class="cls-2" d="M108.74,255A27.79,27.79,0,1,0,81,227.26,27.79,27.79,0,0,0,108.74,255" transform="translate(-75.4 -105)"></path></svg> 